<mxfile host="Electron" agent="Mozilla/5.0 (Windows NT 10.0; Win64; x64) AppleWebKit/537.36 (KHTML, like Gecko) draw.io/24.7.8 Chrome/128.0.6613.36 Electron/32.0.1 Safari/537.36" version="24.7.8">
  <diagram name="Page-1" id="Z192EzTjIP3alUupX85E">
    <mxGraphModel dx="439" dy="395" grid="1" gridSize="10" guides="1" tooltips="1" connect="1" arrows="1" fold="1" page="1" pageScale="1" pageWidth="850" pageHeight="1100" math="0" shadow="0">
      <root>
        <mxCell id="0" />
        <mxCell id="1" parent="0" />
        <mxCell id="V7HknhvoTMzq9FPsoMyt-1" value="" style="whiteSpace=wrap;html=1;aspect=fixed;" vertex="1" parent="1">
          <mxGeometry x="265" y="270" width="40" height="40" as="geometry" />
        </mxCell>
        <mxCell id="V7HknhvoTMzq9FPsoMyt-2" value="" style="whiteSpace=wrap;html=1;aspect=fixed;" vertex="1" parent="1">
          <mxGeometry x="305" y="270" width="40" height="40" as="geometry" />
        </mxCell>
        <mxCell id="V7HknhvoTMzq9FPsoMyt-3" value="" style="whiteSpace=wrap;html=1;aspect=fixed;" vertex="1" parent="1">
          <mxGeometry x="345" y="270" width="40" height="40" as="geometry" />
        </mxCell>
        <mxCell id="V7HknhvoTMzq9FPsoMyt-4" value="" style="whiteSpace=wrap;html=1;aspect=fixed;" vertex="1" parent="1">
          <mxGeometry x="385" y="270" width="40" height="40" as="geometry" />
        </mxCell>
        <mxCell id="V7HknhvoTMzq9FPsoMyt-5" value="" style="whiteSpace=wrap;html=1;aspect=fixed;" vertex="1" parent="1">
          <mxGeometry x="265" y="310" width="40" height="40" as="geometry" />
        </mxCell>
        <mxCell id="V7HknhvoTMzq9FPsoMyt-6" value="" style="whiteSpace=wrap;html=1;aspect=fixed;" vertex="1" parent="1">
          <mxGeometry x="305" y="310" width="40" height="40" as="geometry" />
        </mxCell>
        <mxCell id="V7HknhvoTMzq9FPsoMyt-7" value="" style="whiteSpace=wrap;html=1;aspect=fixed;" vertex="1" parent="1">
          <mxGeometry x="345" y="310" width="40" height="40" as="geometry" />
        </mxCell>
        <mxCell id="V7HknhvoTMzq9FPsoMyt-8" value="" style="whiteSpace=wrap;html=1;aspect=fixed;" vertex="1" parent="1">
          <mxGeometry x="385" y="310" width="40" height="40" as="geometry" />
        </mxCell>
        <mxCell id="V7HknhvoTMzq9FPsoMyt-9" value="" style="whiteSpace=wrap;html=1;aspect=fixed;" vertex="1" parent="1">
          <mxGeometry x="265" y="350" width="40" height="40" as="geometry" />
        </mxCell>
        <mxCell id="V7HknhvoTMzq9FPsoMyt-10" value="" style="whiteSpace=wrap;html=1;aspect=fixed;" vertex="1" parent="1">
          <mxGeometry x="305" y="350" width="40" height="40" as="geometry" />
        </mxCell>
        <mxCell id="V7HknhvoTMzq9FPsoMyt-11" value="" style="whiteSpace=wrap;html=1;aspect=fixed;" vertex="1" parent="1">
          <mxGeometry x="345" y="350" width="40" height="40" as="geometry" />
        </mxCell>
        <mxCell id="V7HknhvoTMzq9FPsoMyt-12" value="" style="whiteSpace=wrap;html=1;aspect=fixed;" vertex="1" parent="1">
          <mxGeometry x="385" y="350" width="40" height="40" as="geometry" />
        </mxCell>
        <mxCell id="V7HknhvoTMzq9FPsoMyt-13" value="" style="whiteSpace=wrap;html=1;aspect=fixed;" vertex="1" parent="1">
          <mxGeometry x="265" y="390" width="40" height="40" as="geometry" />
        </mxCell>
        <mxCell id="V7HknhvoTMzq9FPsoMyt-14" value="" style="whiteSpace=wrap;html=1;aspect=fixed;" vertex="1" parent="1">
          <mxGeometry x="305" y="390" width="40" height="40" as="geometry" />
        </mxCell>
        <mxCell id="V7HknhvoTMzq9FPsoMyt-15" value="" style="whiteSpace=wrap;html=1;aspect=fixed;" vertex="1" parent="1">
          <mxGeometry x="345" y="390" width="40" height="40" as="geometry" />
        </mxCell>
        <mxCell id="V7HknhvoTMzq9FPsoMyt-16" value="" style="whiteSpace=wrap;html=1;aspect=fixed;" vertex="1" parent="1">
          <mxGeometry x="385" y="390" width="40" height="40" as="geometry" />
        </mxCell>
        <mxCell id="V7HknhvoTMzq9FPsoMyt-17" value="" style="endArrow=classic;html=1;rounded=0;" edge="1" parent="1">
          <mxGeometry width="50" height="50" relative="1" as="geometry">
            <mxPoint x="285" y="419" as="sourcePoint" />
            <mxPoint x="405" y="418" as="targetPoint" />
          </mxGeometry>
        </mxCell>
        <mxCell id="V7HknhvoTMzq9FPsoMyt-18" value="" style="endArrow=classic;html=1;rounded=0;entryX=0.5;entryY=0.75;entryDx=0;entryDy=0;entryPerimeter=0;" edge="1" parent="1" target="V7HknhvoTMzq9FPsoMyt-13">
          <mxGeometry width="50" height="50" relative="1" as="geometry">
            <mxPoint x="285" y="290" as="sourcePoint" />
            <mxPoint x="335" y="240" as="targetPoint" />
          </mxGeometry>
        </mxCell>
        <mxCell id="V7HknhvoTMzq9FPsoMyt-19" value="" style="endArrow=classic;html=1;rounded=0;" edge="1" parent="1">
          <mxGeometry width="50" height="50" relative="1" as="geometry">
            <mxPoint x="404" y="413" as="sourcePoint" />
            <mxPoint x="405" y="367" as="targetPoint" />
          </mxGeometry>
        </mxCell>
        <mxCell id="V7HknhvoTMzq9FPsoMyt-20" value="" style="endArrow=classic;html=1;rounded=0;" edge="1" parent="1">
          <mxGeometry width="50" height="50" relative="1" as="geometry">
            <mxPoint x="404" y="369" as="sourcePoint" />
            <mxPoint x="320" y="369" as="targetPoint" />
          </mxGeometry>
        </mxCell>
        <mxCell id="V7HknhvoTMzq9FPsoMyt-21" value="" style="endArrow=classic;html=1;rounded=0;" edge="1" parent="1">
          <mxGeometry width="50" height="50" relative="1" as="geometry">
            <mxPoint x="324.5" y="366" as="sourcePoint" />
            <mxPoint x="325.5" y="320" as="targetPoint" />
          </mxGeometry>
        </mxCell>
        <mxCell id="V7HknhvoTMzq9FPsoMyt-22" value="" style="endArrow=classic;html=1;rounded=0;" edge="1" parent="1">
          <mxGeometry width="50" height="50" relative="1" as="geometry">
            <mxPoint x="405" y="320" as="sourcePoint" />
            <mxPoint x="405.5" y="290" as="targetPoint" />
          </mxGeometry>
        </mxCell>
        <mxCell id="V7HknhvoTMzq9FPsoMyt-23" value="" style="endArrow=classic;html=1;rounded=0;" edge="1" parent="1">
          <mxGeometry width="50" height="50" relative="1" as="geometry">
            <mxPoint x="326" y="321" as="sourcePoint" />
            <mxPoint x="400" y="321" as="targetPoint" />
          </mxGeometry>
        </mxCell>
        <mxCell id="V7HknhvoTMzq9FPsoMyt-24" value="" style="endArrow=classic;html=1;rounded=0;" edge="1" parent="1">
          <mxGeometry width="50" height="50" relative="1" as="geometry">
            <mxPoint x="403" y="290" as="sourcePoint" />
            <mxPoint x="326" y="290" as="targetPoint" />
          </mxGeometry>
        </mxCell>
        <mxCell id="V7HknhvoTMzq9FPsoMyt-25" value="" style="whiteSpace=wrap;html=1;aspect=fixed;" vertex="1" parent="1">
          <mxGeometry x="510" y="270" width="40" height="40" as="geometry" />
        </mxCell>
        <mxCell id="V7HknhvoTMzq9FPsoMyt-26" value="" style="whiteSpace=wrap;html=1;aspect=fixed;" vertex="1" parent="1">
          <mxGeometry x="550" y="270" width="40" height="40" as="geometry" />
        </mxCell>
        <mxCell id="V7HknhvoTMzq9FPsoMyt-27" value="" style="whiteSpace=wrap;html=1;aspect=fixed;" vertex="1" parent="1">
          <mxGeometry x="590" y="270" width="40" height="40" as="geometry" />
        </mxCell>
        <mxCell id="V7HknhvoTMzq9FPsoMyt-28" value="" style="whiteSpace=wrap;html=1;aspect=fixed;" vertex="1" parent="1">
          <mxGeometry x="630" y="270" width="40" height="40" as="geometry" />
        </mxCell>
        <mxCell id="V7HknhvoTMzq9FPsoMyt-29" value="" style="whiteSpace=wrap;html=1;aspect=fixed;" vertex="1" parent="1">
          <mxGeometry x="510" y="310" width="40" height="40" as="geometry" />
        </mxCell>
        <mxCell id="V7HknhvoTMzq9FPsoMyt-30" value="" style="whiteSpace=wrap;html=1;aspect=fixed;" vertex="1" parent="1">
          <mxGeometry x="550" y="310" width="40" height="40" as="geometry" />
        </mxCell>
        <mxCell id="V7HknhvoTMzq9FPsoMyt-31" value="" style="whiteSpace=wrap;html=1;aspect=fixed;" vertex="1" parent="1">
          <mxGeometry x="590" y="310" width="40" height="40" as="geometry" />
        </mxCell>
        <mxCell id="V7HknhvoTMzq9FPsoMyt-32" value="" style="whiteSpace=wrap;html=1;aspect=fixed;" vertex="1" parent="1">
          <mxGeometry x="630" y="310" width="40" height="40" as="geometry" />
        </mxCell>
        <mxCell id="V7HknhvoTMzq9FPsoMyt-33" value="" style="whiteSpace=wrap;html=1;aspect=fixed;" vertex="1" parent="1">
          <mxGeometry x="510" y="350" width="40" height="40" as="geometry" />
        </mxCell>
        <mxCell id="V7HknhvoTMzq9FPsoMyt-34" value="" style="whiteSpace=wrap;html=1;aspect=fixed;" vertex="1" parent="1">
          <mxGeometry x="550" y="350" width="40" height="40" as="geometry" />
        </mxCell>
        <mxCell id="V7HknhvoTMzq9FPsoMyt-35" value="" style="whiteSpace=wrap;html=1;aspect=fixed;" vertex="1" parent="1">
          <mxGeometry x="590" y="350" width="40" height="40" as="geometry" />
        </mxCell>
        <mxCell id="V7HknhvoTMzq9FPsoMyt-36" value="" style="whiteSpace=wrap;html=1;aspect=fixed;" vertex="1" parent="1">
          <mxGeometry x="630" y="350" width="40" height="40" as="geometry" />
        </mxCell>
        <mxCell id="V7HknhvoTMzq9FPsoMyt-37" value="" style="whiteSpace=wrap;html=1;aspect=fixed;" vertex="1" parent="1">
          <mxGeometry x="510" y="390" width="40" height="40" as="geometry" />
        </mxCell>
        <mxCell id="V7HknhvoTMzq9FPsoMyt-38" value="" style="whiteSpace=wrap;html=1;aspect=fixed;" vertex="1" parent="1">
          <mxGeometry x="550" y="390" width="40" height="40" as="geometry" />
        </mxCell>
        <mxCell id="V7HknhvoTMzq9FPsoMyt-39" value="" style="whiteSpace=wrap;html=1;aspect=fixed;" vertex="1" parent="1">
          <mxGeometry x="590" y="390" width="40" height="40" as="geometry" />
        </mxCell>
        <mxCell id="V7HknhvoTMzq9FPsoMyt-40" value="" style="whiteSpace=wrap;html=1;aspect=fixed;" vertex="1" parent="1">
          <mxGeometry x="630" y="390" width="40" height="40" as="geometry" />
        </mxCell>
        <mxCell id="V7HknhvoTMzq9FPsoMyt-49" value="" style="endArrow=classic;html=1;rounded=0;" edge="1" parent="1">
          <mxGeometry width="50" height="50" relative="1" as="geometry">
            <mxPoint x="539" y="280" as="sourcePoint" />
            <mxPoint x="518" y="302" as="targetPoint" />
          </mxGeometry>
        </mxCell>
        <mxCell id="V7HknhvoTMzq9FPsoMyt-50" value="" style="endArrow=classic;html=1;rounded=0;" edge="1" parent="1">
          <mxGeometry width="50" height="50" relative="1" as="geometry">
            <mxPoint x="571" y="288" as="sourcePoint" />
            <mxPoint x="526" y="335" as="targetPoint" />
          </mxGeometry>
        </mxCell>
        <mxCell id="V7HknhvoTMzq9FPsoMyt-51" value="" style="endArrow=classic;html=1;rounded=0;" edge="1" parent="1">
          <mxGeometry width="50" height="50" relative="1" as="geometry">
            <mxPoint x="612" y="290" as="sourcePoint" />
            <mxPoint x="527" y="374" as="targetPoint" />
          </mxGeometry>
        </mxCell>
        <mxCell id="V7HknhvoTMzq9FPsoMyt-52" value="" style="endArrow=classic;html=1;rounded=0;" edge="1" parent="1">
          <mxGeometry width="50" height="50" relative="1" as="geometry">
            <mxPoint x="649" y="294" as="sourcePoint" />
            <mxPoint x="526" y="414" as="targetPoint" />
          </mxGeometry>
        </mxCell>
        <mxCell id="V7HknhvoTMzq9FPsoMyt-54" value="BFS" style="text;html=1;align=center;verticalAlign=middle;whiteSpace=wrap;rounded=0;" vertex="1" parent="1">
          <mxGeometry x="560" y="240" width="60" height="30" as="geometry" />
        </mxCell>
        <mxCell id="V7HknhvoTMzq9FPsoMyt-55" value="DFS" style="text;html=1;align=center;verticalAlign=middle;whiteSpace=wrap;rounded=0;" vertex="1" parent="1">
          <mxGeometry x="320" y="240" width="60" height="30" as="geometry" />
        </mxCell>
        <mxCell id="V7HknhvoTMzq9FPsoMyt-56" value="TOP-&amp;gt;RIGHT-&amp;gt;BOTTOM-&amp;gt;LEFT&lt;div&gt;&amp;nbsp;(clockwise add to stack/queue)&lt;/div&gt;" style="text;html=1;align=center;verticalAlign=middle;whiteSpace=wrap;rounded=0;" vertex="1" parent="1">
          <mxGeometry x="330" y="240" width="270" height="30" as="geometry" />
        </mxCell>
      </root>
    </mxGraphModel>
  </diagram>
</mxfile>
